<svg preserveAspectRatio="none" overflow="visible" style="display: block;" width="17.9167" height="17.9167" viewBox="0 0 17.9167 17.9167" fill="none" xmlns="http://www.w3.org/2000/svg">
<g id="Vector 1">
<path d="M5.625 5C5.27982 5 5 5.27982 5 5.625C5 5.97018 5.27982 6.25 5.625 6.25H12.2917C12.6368 6.25 12.9167 5.97018 12.9167 5.625C12.9167 5.27982 12.6368 5 12.2917 5H5.625Z" fill="#223A81"/>
<path d="M5 8.95833C5 8.61316 5.27982 8.33333 5.625 8.33333H12.2917C12.6368 8.33333 12.9167 8.61316 12.9167 8.95833C12.9167 9.30351 12.6368 9.58333 12.2917 9.58333H5.625C5.27982 9.58333 5 9.30351 5 8.95833Z" fill="#223A81"/>
<path d="M5.625 11.6667C5.27982 11.6667 5 11.9465 5 12.2917C5 12.6368 5.27982 12.9167 5.625 12.9167H12.2917C12.6368 12.9167 12.9167 12.6368 12.9167 12.2917C12.9167 11.9465 12.6368 11.6667 12.2917 11.6667H5.625Z" fill="#223A81"/>
<path fill-rule="evenodd" clip-rule="evenodd" d="M11.9858 8.96102e-08H5.93083C5.02072 -4.48834e-06 4.29946 -8.11492e-06 3.71811 0.04749C3.12362 0.0960619 2.6206 0.197402 2.16129 0.431433C1.41648 0.810932 0.810932 1.41648 0.431433 2.16129C0.197402 2.6206 0.0960619 3.12362 0.04749 3.71811C-8.11492e-06 4.29946 -4.48834e-06 5.02071 8.96102e-08 5.93082V11.9858C-4.48834e-06 12.896 -8.11492e-06 13.6172 0.04749 14.1986C0.0960619 14.793 0.197402 15.2961 0.431433 15.7554C0.810932 16.5002 1.41648 17.1057 2.16129 17.4852C2.6206 17.7193 3.12362 17.8206 3.71811 17.8692C4.29946 17.9167 5.0207 17.9167 5.93082 17.9167H11.9858C12.896 17.9167 13.6172 17.9167 14.1986 17.8692C14.793 17.8206 15.2961 17.7193 15.7554 17.4852C16.5002 17.1057 17.1057 16.5002 17.4852 15.7554C17.7193 15.2961 17.8206 14.793 17.8692 14.1986C17.9167 13.6172 17.9167 12.896 17.9167 11.9859V5.93082C17.9167 5.0207 17.9167 4.29946 17.8692 3.71811C17.8206 3.12362 17.7193 2.6206 17.4852 2.16129C17.1057 1.41648 16.5002 0.810932 15.7554 0.431433C15.2961 0.197402 14.793 0.0960619 14.1986 0.04749C13.6172 -8.11492e-06 12.8959 -4.48834e-06 11.9858 8.96102e-08ZM2.72878 1.54519C2.9825 1.41591 3.30271 1.33559 3.8199 1.29334C4.34439 1.25049 5.0146 1.25 5.95833 1.25H11.9583C12.9021 1.25 13.5723 1.25049 14.0968 1.29334C14.614 1.33559 14.9342 1.41591 15.1879 1.54519C15.6975 1.80485 16.1118 2.21917 16.3715 2.72878C16.5008 2.9825 16.5811 3.30271 16.6233 3.8199C16.6662 4.34439 16.6667 5.0146 16.6667 5.95833V11.9583C16.6667 12.9021 16.6662 13.5723 16.6233 14.0968C16.5811 14.614 16.5008 14.9342 16.3715 15.1879C16.1118 15.6975 15.6975 16.1118 15.1879 16.3715C14.9342 16.5008 14.614 16.5811 14.0968 16.6233C13.5723 16.6662 12.9021 16.6667 11.9583 16.6667H5.95833C5.0146 16.6667 4.34439 16.6662 3.8199 16.6233C3.30271 16.5811 2.9825 16.5008 2.72878 16.3715C2.21917 16.1118 1.80485 15.6975 1.54519 15.1879C1.41591 14.9342 1.33559 14.614 1.29334 14.0968C1.25049 13.5723 1.25 12.9021 1.25 11.9583V5.95833C1.25 5.0146 1.25049 4.34439 1.29334 3.8199C1.33559 3.30271 1.41591 2.9825 1.54519 2.72878C1.80485 2.21917 2.21917 1.80485 2.72878 1.54519Z" fill="#223A81"/>
</g>
</svg>
